<svg width="56" height="56" viewBox="0 0 56 56" fill="none" xmlns="http://www.w3.org/2000/svg">
<rect x="0.5" y="0.5" width="55" height="55" rx="27.5" fill="white"/>
<rect x="0.5" y="0.5" width="55" height="55" rx="27.5" stroke="#111111"/>
<path d="M36.7806 28.5307L30.0306 35.2807C29.8899 35.4214 29.699 35.5005 29.5 35.5005C29.301 35.5005 29.1101 35.4214 28.9694 35.2807C28.8286 35.1399 28.7496 34.9491 28.7496 34.7501C28.7496 34.551 28.8286 34.3602 28.9694 34.2194L34.4397 28.7501H19.75C19.5511 28.7501 19.3603 28.671 19.2197 28.5304C19.079 28.3897 19 28.199 19 28.0001C19 27.8011 19.079 27.6104 19.2197 27.4697C19.3603 27.3291 19.5511 27.2501 19.75 27.2501H34.4397L28.9694 21.7807C28.8286 21.6399 28.7496 21.4491 28.7496 21.2501C28.7496 21.051 28.8286 20.8602 28.9694 20.7194C29.1101 20.5787 29.301 20.4996 29.5 20.4996C29.699 20.4996 29.8899 20.5787 30.0306 20.7194L36.7806 27.4694C36.8504 27.5391 36.9057 27.6218 36.9434 27.7128C36.9812 27.8039 37.0006 27.9015 37.0006 28.0001C37.0006 28.0986 36.9812 28.1962 36.9434 28.2873C36.9057 28.3783 36.8504 28.461 36.7806 28.5307Z" fill="#111111"/>
</svg>
