<svg width="56" height="56" viewBox="0 0 56 56" fill="none" xmlns="http://www.w3.org/2000/svg">
<rect x="0.5" y="0.5" width="55" height="55" rx="27.5" fill="white"/>
<rect x="0.5" y="0.5" width="55" height="55" rx="27.5" stroke="#111111"/>
<path d="M37 28.0001C37 28.199 36.921 28.3897 36.7803 28.5304C36.6397 28.671 36.4489 28.7501 36.25 28.7501H21.5603L27.0306 34.2194C27.1003 34.2891 27.1556 34.3718 27.1933 34.4629C27.231 34.5539 27.2504 34.6515 27.2504 34.7501C27.2504 34.8486 27.231 34.9462 27.1933 35.0372C27.1556 35.1283 27.1003 35.211 27.0306 35.2807C26.961 35.3504 26.8782 35.4056 26.7872 35.4433C26.6961 35.4811 26.5986 35.5005 26.5 35.5005C26.4015 35.5005 26.3039 35.4811 26.2128 35.4433C26.1218 35.4056 26.0391 35.3504 25.9694 35.2807L19.2194 28.5307C19.1497 28.461 19.0943 28.3783 19.0566 28.2873C19.0188 28.1962 18.9994 28.0986 18.9994 28.0001C18.9994 27.9015 19.0188 27.8039 19.0566 27.7128C19.0943 27.6218 19.1497 27.5391 19.2194 27.4694L25.9694 20.7194C26.1101 20.5787 26.301 20.4996 26.5 20.4996C26.699 20.4996 26.8899 20.5787 27.0306 20.7194C27.1714 20.8602 27.2504 21.051 27.2504 21.2501C27.2504 21.4491 27.1714 21.6399 27.0306 21.7807L21.5603 27.2501H36.25C36.4489 27.2501 36.6397 27.3291 36.7803 27.4697C36.921 27.6104 37 27.8011 37 28.0001Z" fill="#111111"/>
</svg>
