<svg width="1440" height="112" viewBox="0 0 1440 112" fill="none" xmlns="http://www.w3.org/2000/svg">
<rect width="1440" height="112" fill="#FC7A1D"/>
<g clip-path="url(#clip0_1_544)">
<path fill-rule="evenodd" clip-rule="evenodd" d="M139.515 50.8571V60.2799C139.515 63.0231 140.321 64.3785 142.449 64.3785C144.931 64.3785 145.995 62.9906 145.995 59.6026V50.8571H150.556V67.5461H146.22L146.211 65.0559C145.069 67.0733 142.965 67.9999 141.031 67.9999C136.175 67.9999 134.954 65.2515 134.954 61.1192V50.8571H139.515ZM221.342 50.3688C226.579 50.3688 229.945 53.8369 229.945 59.2008C229.945 64.532 226.579 67.9999 221.342 67.9999C216.137 67.9999 212.771 64.532 212.771 59.2008C212.771 53.8369 216.137 50.3688 221.342 50.3688ZM190.431 50.2666C196.044 50.2666 198.755 55.0194 198.436 60.1698H186.54C186.668 63.0756 188.071 64.3992 190.591 64.3992C192.409 64.3992 193.876 63.2692 194.163 62.2365H198.15C196.874 66.1575 194.163 67.8195 190.431 67.8195C185.233 67.8195 182.011 64.2379 182.011 59.0712C182.011 54.0444 185.424 50.2666 190.431 50.2666ZM173.375 50.3157C176.897 50.3157 179.429 51.9649 179.429 56.2932V67.4586H174.877V58.0033C174.877 55.7769 174.685 53.9374 172.097 53.9374C169.541 53.9374 169.062 56.0674 169.062 58.1648V67.4586H164.51V57.9836C164.514 56.0757 164.581 53.9374 161.762 53.9374C160.867 53.9374 158.694 54.5184 158.694 57.7774V67.4586H154.143V50.7696H158.438L158.434 53.1365C159.599 51.3714 161.411 50.3157 163.551 50.3157C165.632 50.3157 167.491 51.0919 168.389 53.0965C169.349 51.6417 171.075 50.3157 173.375 50.3157ZM210.885 50.3157C211.209 50.3157 211.597 50.38 211.888 50.4758V54.7121C211.468 54.6155 210.789 54.5509 210.239 54.5509C206.879 54.5509 205.716 56.9713 205.716 59.9479V67.4586H201.128V50.7741H205.49L205.488 53.9599C206.351 51.7918 208.656 50.3157 210.885 50.3157ZM117.006 44.3608L126.654 59.9529L126.651 44.3608H131.368V67.4586H126.33L116.717 51.8793L116.717 67.4586H112V44.3608H117.006ZM221.342 53.8042C218.256 53.8042 217.323 56.5025 217.323 59.2008C217.323 61.8664 218.256 64.5649 221.342 64.5649C224.46 64.5649 225.393 61.8664 225.393 59.2008C225.393 56.5025 224.46 53.8042 221.342 53.8042ZM190.304 53.6869C187.434 53.6869 186.604 55.9624 186.54 57.2626H193.908C193.493 54.9219 192.504 53.6867 190.304 53.6867L190.304 53.6869ZM195.966 44.0831L191.054 48.654H187.897L190.959 44.0833H195.965L195.966 44.0831Z" fill="black"/>
</g>
<g clip-path="url(#clip1_1_544)">
<path d="M363.898 40.2872H370.454C374.102 40.2872 376.008 42.0896 376.008 44.3023C376.008 45.8311 375.106 46.8677 373.856 47.4175V47.4558C375.455 48.0055 376.357 49.2171 376.357 50.7652C376.357 52.9778 374.574 54.917 370.723 54.917H363.898V40.2872ZM370.251 46.0855C371.338 46.0855 371.827 45.5576 371.827 44.9696C371.827 44.3816 371.335 43.8346 370.251 43.8346H368.325V46.0855H370.251ZM370.311 51.3723C371.458 51.3723 372.01 50.8445 372.01 50.158C372.01 49.4715 371.438 48.9436 370.331 48.9436H368.322V51.3723H370.311ZM377.298 48.9628V40.2872H381.765V48.9245C381.765 50.5491 382.606 51.4106 384.04 51.4106C385.473 51.4106 386.374 50.5491 386.374 48.9026V40.2845H390.861V48.96C390.861 52.6414 388.28 55.2862 384.037 55.2862C379.793 55.2862 377.295 52.6414 377.295 48.96L377.298 48.9628ZM402.235 40.9929V44.7535C401.271 44.1081 399.634 43.6568 398.301 43.6568C397.09 43.6568 396.478 44.0287 396.478 44.5183C396.478 45.0079 397.153 45.2623 398.363 45.6725C400.412 46.359 403.199 47.278 403.199 50.3932C403.199 53.1747 401.007 55.2315 397.156 55.2315C395.167 55.2315 393.345 54.6845 392.217 53.9597V50.0048C393.325 50.8664 395.004 51.5529 396.624 51.5529C397.997 51.5529 398.632 51.0633 398.632 50.5135C398.632 49.8079 397.588 49.4961 396.338 49.064C394.698 48.4951 392.097 47.4776 392.097 44.6387C392.097 42.0732 394.209 39.9781 397.977 39.9781C399.637 39.9781 401.133 40.3884 402.238 40.9956H402.235V40.9929ZM404.344 40.2872H408.81V54.917H404.344V40.2872ZM424.691 54.917H420.43L414.919 47.0619H414.899V54.917H410.659V40.2872H414.919L420.43 48.0028H420.45V40.2872H424.691V54.917ZM426.534 40.2872H437.106V44.0862H431V45.8476H436.491V49.2937H431V51.1152H437.106V54.9142H426.534V40.2845V40.2872ZM448.314 40.9929V44.7535C447.35 44.1081 445.713 43.6568 444.38 43.6568C443.172 43.6568 442.557 44.0287 442.557 44.5183C442.557 45.0079 443.232 45.2623 444.443 45.6725C446.492 46.359 449.278 47.278 449.278 50.3932C449.278 53.1747 447.087 55.2315 443.235 55.2315C441.247 55.2315 439.424 54.6845 438.297 53.9597V50.0048C439.404 50.8664 441.084 51.5529 442.703 51.5529C444.077 51.5529 444.712 51.0633 444.712 50.5135C444.712 49.8079 443.667 49.4961 442.417 49.064C440.777 48.4951 438.176 47.4776 438.176 44.6387C438.176 42.0732 440.288 39.9781 444.056 39.9781C445.716 39.9781 447.213 40.3884 448.317 40.9956L448.314 40.9929ZM460.137 40.9929V44.7535C459.173 44.1081 457.536 43.6568 456.203 43.6568C454.995 43.6568 454.38 44.0287 454.38 44.5183C454.38 45.0079 455.056 45.2623 456.266 45.6725C458.315 46.359 461.102 47.278 461.102 50.3932C461.102 53.1747 458.91 55.2315 455.058 55.2315C453.07 55.2315 451.247 54.6845 450.12 53.9597V50.0048C451.227 50.8664 452.907 51.5529 454.526 51.5529C455.9 51.5529 456.535 51.0633 456.535 50.5135C456.535 49.8079 455.49 49.4961 454.24 49.064C452.601 48.4951 450 47.4776 450 44.6387C450 42.0732 452.111 39.9781 455.88 39.9781C457.539 39.9781 459.036 40.3884 460.14 40.9956L460.137 40.9929ZM373.704 71.6582H378.171V57.0284H373.704V71.6582ZM394.051 57.0284H389.811V64.744H389.791L384.28 57.0284H380.019V71.6582H384.26V63.8031H384.28L389.791 71.6582H394.051V57.0284ZM401.242 56.7139C397.471 56.7139 395.362 58.8089 395.362 61.3744C395.362 64.2134 397.963 65.2335 399.602 65.7997C400.853 66.2318 401.897 66.5436 401.897 67.2493C401.897 67.799 401.262 68.2886 399.889 68.2886C398.269 68.2886 396.589 67.6021 395.482 66.7405V70.6954C396.609 71.4202 398.432 71.9672 400.421 71.9672C404.272 71.9672 406.464 69.9105 406.464 67.1289C406.464 64.0137 403.677 63.0947 401.628 62.4082C400.421 61.998 399.743 61.7628 399.743 61.2513C399.743 60.7399 400.358 60.3898 401.565 60.3898C402.896 60.3898 404.535 60.8411 405.5 61.4865V57.7258C404.392 57.1187 402.899 56.7084 401.239 56.7084V56.7139H401.242ZM407.508 71.6582H411.975V57.0284H407.508V71.6582ZM418.284 67.799H419.146C421.46 67.799 422.957 66.5464 422.957 64.3529C422.957 62.1593 421.46 60.8876 419.146 60.8876H418.284V67.8017V67.799ZM427.463 64.3529C427.463 68.759 423.981 71.6582 418.98 71.6582H413.818V57.0284H418.98C423.978 57.0284 427.463 59.9467 427.463 64.3529ZM428.674 71.6582H439.247V67.8592H433.14V66.0376H438.631V62.5915H433.14V60.8301H439.247V57.0311H428.674V71.6609V71.6582ZM446.277 63.9426C447.404 63.9426 448.286 63.4339 448.286 62.4137C448.286 61.3935 447.404 60.8848 446.257 60.8848H445.315V63.9399H446.28L446.277 63.9426ZM453.591 71.6582H448.326L445.416 67.1344H445.313V71.6582H440.846V57.0284H446.297C450.128 57.0284 452.792 58.653 452.792 62.1211C452.792 63.4913 452.157 65.4906 449.616 66.5081L453.591 71.6582Z" fill="black"/>
</g>
<path d="M741.114 65.2785H748.879V65.2202L747.778 64.6074C746.499 63.878 746.499 63.382 746.499 61.1936V55.5332L754.026 63.2069C755.96 65.1326 757.329 65.7162 759.114 65.7162C760.126 65.7171 761.117 65.4336 761.97 64.8992V64.8408C760.423 64.6074 758.727 63.7613 757.031 62.069L748.939 54.1034L756.139 47.9761C757.158 47.1163 758.301 46.4084 759.531 45.8753L760.483 45.4085V45.3501H753.64V45.4085L754.235 45.9629C754.949 46.6048 755.068 47.0424 754.324 47.6844L746.469 54.4828V49.435C746.469 47.2467 746.469 46.7507 747.749 46.0212L748.849 45.4085V45.3501H741.114V45.4085L742.215 46.0212C743.494 46.7507 743.494 47.2467 743.494 49.435V61.1936C743.494 63.382 743.494 63.878 742.215 64.6074L741.084 65.2202L741.114 65.2785ZM719.484 45.4085L720.614 46.0212C721.864 46.7507 721.864 47.2467 721.864 49.435V62.7692C721.864 63.9947 721.686 64.2281 720.852 64.6658L719.781 65.2493V65.3077H730.79C731.536 65.2792 732.283 65.3183 733.021 65.4244L733.467 60.4058H733.408L732.456 61.6897C731.206 63.382 730.522 63.8196 727.904 63.8196C726.889 63.8419 725.874 63.7834 724.869 63.6446V49.435C724.869 47.2467 724.869 46.7507 726.119 46.0212L727.249 45.4085V45.3501H719.484V45.4085ZM693.302 55.008C693.302 50.0769 696.485 46.5172 701.335 46.5172C705.917 46.5172 709.309 50.4562 709.309 55.6207C709.309 60.5517 706.185 64.1114 701.335 64.1114C696.753 64.1114 693.302 60.2016 693.302 55.008ZM690.089 55.5915C690.089 61.1645 695.384 65.6286 701.335 65.6286C707.285 65.6286 712.581 60.9602 712.581 55.0371C712.581 49.4642 707.285 45 701.335 45C695.384 45 690.089 49.6684 690.089 55.5915ZM669.678 65.2785H678.039V65.2202L676.908 64.6366C675.153 63.7321 675.064 63.2069 675.064 61.1353V55.4164H678.366C679.764 55.4164 680.568 55.6207 680.955 56.2334L681.312 56.7586H681.371L681.817 52.2944H681.758L681.252 52.9072C680.717 53.6074 680.092 53.9576 678.664 53.9576H675.093V46.9549L678.247 46.809C680.211 46.7215 680.806 47.0424 681.52 48.4138L682.115 49.6393H682.204L682.65 45.2042C681.862 45.31 681.066 45.3588 680.27 45.3501H669.708V45.4085L670.839 46.0212C672.118 46.7507 672.118 47.2467 672.118 49.435V61.1936C672.118 63.382 672.118 63.878 670.839 64.6074L669.708 65.2202L669.678 65.2785ZM639.004 65.2785H646.055V65.2202L644.716 64.4615C643.556 63.7905 643.467 63.2361 643.467 61.6021V50.9231L658.462 65.5703H658.521V49.0265C658.521 47.3926 658.611 46.8966 659.771 46.1963L661.169 45.4085V45.3501H654.029V45.4085L655.427 46.1963C656.617 46.8966 656.706 47.3926 656.706 49.0265V59.7056L641.771 45.0584H641.711V61.6021C641.711 63.2361 641.622 63.7321 640.432 64.4324L639.033 65.2202L639.004 65.2785ZM622.491 65.2785H630.257V65.2202L629.126 64.6074C627.847 63.878 627.847 63.382 627.847 61.1936V49.435C627.847 47.2467 627.847 46.7507 629.126 46.0212L630.257 45.4085V45.3501H622.521V45.4085L623.652 46.0212C624.901 46.7507 624.901 47.2467 624.901 49.435V61.1936C624.901 63.382 624.901 63.878 623.652 64.6074L622.521 65.2202L622.491 65.2785ZM595 65.2785H602.765V65.2202L601.635 64.6074C600.385 63.878 600.385 63.382 600.385 61.1936V55.5332L607.913 63.2069C609.876 65.1326 611.215 65.7162 613 65.7162C614.013 65.7188 615.004 65.4351 615.856 64.8992V64.8408C614.309 64.6074 612.613 63.7613 610.888 62.069L602.855 54.1034L609.995 47.9761C610.977 47.1008 611.899 46.6048 613.446 45.8462L614.399 45.4085V45.3501H607.555V45.4085L608.151 45.9337C608.865 46.6048 608.984 47.0133 608.24 47.6844L600.355 54.4536V49.435C600.355 47.2467 600.355 46.7507 601.605 46.0212L602.736 45.4085V45.3501H595V45.4085L596.131 46.0212C597.38 46.7507 597.38 47.2467 597.38 49.435V61.1936C597.38 63.382 597.38 63.878 596.101 64.6074L595 65.2202V65.2785Z" fill="black"/>
<path d="M905.28 53.8814L904.914 57.0092H899.261V71.6247H896V40.3768H906.345L906.017 43.6132H899.261V53.8181H905.288L905.28 53.8814ZM995.331 43.6132H989.255V53.4081H993.506L993.5 53.4714L993.133 56.5992H989.255V57.3016V68.4336H994.042L994.036 68.4984L993.669 71.6247H989.255H985.993V40.3784H995.659L995.331 43.6132ZM922.169 72C919.24 72 917.489 69.9304 917.489 66.4634V62.1523H920.467V66.8388C920.467 68.105 920.988 68.9973 922.028 68.9973C923.162 68.9973 923.681 68.1999 923.681 66.8388C923.681 63.6959 922.782 61.0203 921.129 57.4086C919.664 54.2643 917.637 49.4331 917.637 46.1938C917.637 42.5761 919.102 40 922.457 40C925.057 40 926.709 41.9716 926.709 45.5381V50.1733H923.777V45.3029C923.777 43.895 923.305 43.2363 922.453 43.2363C921.508 43.2363 920.846 43.8483 920.846 45.1612C920.846 46.9791 921.791 50.8893 923.587 54.9682C925.338 58.8617 926.849 62.7101 926.849 65.9931C926.849 70.871 924.058 71.9985 922.169 71.9985V72ZM1025.32 72C1022.39 72 1020.64 69.9364 1020.64 66.4634V62.1523H1023.62V66.8388C1023.62 68.105 1024.14 68.9973 1025.18 68.9973C1026.32 68.9973 1026.84 68.1999 1026.84 66.8388C1026.84 63.6959 1025.94 61.0203 1024.28 57.4086C1022.82 54.2643 1020.79 49.4331 1020.79 46.1938C1020.79 42.5761 1022.26 40 1025.61 40C1028.21 40 1029.86 41.9716 1029.86 45.5381V50.1733H1026.93V45.3029C1026.93 43.895 1026.46 43.2378 1025.6 43.2378C1024.66 43.2378 1024 43.8483 1024 45.1627C1024 46.9806 1024.94 50.8908 1026.74 54.9697C1028.48 58.8617 1030 62.7101 1030 65.9946C1030 70.8725 1027.21 72 1025.32 72ZM935.924 71.6247V56.7982H933.23V71.6247H929.92V40.3768H933.23V53.4684H935.924V40.3768H939.184V71.6247H935.924ZM942.454 40.3768H945.761V71.6247H942.454V40.3768ZM953.475 72C950.922 72 948.796 69.8414 948.796 66.6518V45.3497C948.796 42.2053 950.922 40 953.475 40C956.027 40 958.154 42.2053 958.154 45.3497V66.6518C958.154 69.8414 956.028 72 953.475 72ZM954.841 44.9261C954.841 44.0835 954.322 43.4187 953.475 43.4187C952.577 43.4187 952.108 44.0759 952.108 44.9261V67.0739C952.108 67.9648 952.58 68.5813 953.475 68.5813C954.325 68.5813 954.841 67.9783 954.841 67.0739V44.9261ZM968.464 71.6247L964.823 55.8606L964.018 51.355V71.6247H961.138V40.3768H964.445L967.471 56.1409L968.178 60.6917V40.3768H971.062V71.6247H968.464ZM979.341 71.6247H974.027V40.3768H979.341C981.183 40.3768 983.499 41.3144 983.499 45.3029V51.0747C983.499 52.7644 982.932 53.9387 981.657 54.6396C982.932 55.3933 983.499 56.5615 983.499 58.206V66.6986C983.499 70.6856 981.183 71.6247 979.341 71.6247ZM980.286 45.2095C980.286 44.1287 979.859 43.7021 979.244 43.7021H977.339V53.1865H979.103C979.812 53.1865 980.286 52.6227 980.286 51.5435V45.2095ZM980.286 57.8292C980.286 56.7982 979.812 56.1877 979.103 56.1877H977.339V68.3401H979.244C979.852 68.3401 980.286 67.8728 980.286 66.792V57.8292ZM1002.52 71.6247L1002.19 65.6193H999.539L999.025 71.6247H996.095L999.262 40.3768H1002.81L1005.93 71.6247H1002.52ZM1001.05 48.1097L999.823 62.2428H1001.95L1001.05 48.1097ZM1015.41 71.6247L1011.77 55.8606L1010.97 51.355V71.6247H1008.08V40.3768H1011.39L1014.42 56.1409L1015.13 60.6917V40.3768H1018.01V71.6247H1015.41ZM912.368 71.6247L912.038 65.6193H909.39L908.871 71.6247H905.942L909.108 40.3768H912.653L915.774 71.6247H912.368ZM910.904 48.1097L909.676 62.2428H911.802L910.904 48.1097Z" fill="black"/>
<g clip-path="url(#clip2_1_544)">
<path d="M1168.52 46.4433V53.7767H1176.58V46.4433H1180.97V65.56H1176.58V57.3133H1168.52V65.56H1164.14V46.4433H1168.52ZM1190.14 58.11V65.56H1194.53V58.2267L1201.92 46.4433H1197.04L1192.41 54L1187.75 46.4433H1182.84L1190.14 58.11ZM1203.79 46.4433V65.56H1208.17V58.7067H1212.78C1213.86 58.7328 1214.94 58.555 1215.96 58.1833C1216.77 57.8793 1217.5 57.4081 1218.09 56.8033C1218.64 56.2408 1219.05 55.5692 1219.29 54.8367C1219.79 53.3614 1219.79 51.7719 1219.29 50.2967C1219.05 49.5659 1218.64 48.8957 1218.1 48.3333C1217.5 47.7303 1216.77 47.2594 1215.96 46.9533C1214.95 46.5827 1213.87 46.4061 1212.78 46.4333L1203.79 46.4433ZM1208.17 55.4433V49.71H1211.58C1212.06 49.7076 1212.55 49.7433 1213.03 49.8167C1213.46 49.8776 1213.88 50.0179 1214.26 50.23C1214.62 50.4429 1214.91 50.7445 1215.11 51.1033C1215.34 51.5603 1215.45 52.0655 1215.43 52.5733C1215.45 53.0822 1215.34 53.5885 1215.11 54.0467C1214.91 54.4046 1214.62 54.7051 1214.26 54.9167C1213.88 55.1294 1213.46 55.2709 1213.03 55.3333C1212.55 55.405 1212.07 55.4407 1211.58 55.44L1208.17 55.4433ZM1221.54 46.4433V65.56H1236.66V62.0267H1225.92V57.3333H1235.58V54.0667H1225.92V49.9767H1236.44V46.4433H1221.54ZM1238.54 46.4433V65.56H1248.19C1249.07 65.5575 1249.95 65.4454 1250.8 65.2267C1251.61 65.0267 1252.38 64.6879 1253.06 64.2267C1253.72 63.7802 1254.26 63.1881 1254.64 62.5C1255.04 61.7242 1255.24 60.8644 1255.22 59.9967C1255.25 58.9094 1254.94 57.8388 1254.31 56.93C1253.64 56.0471 1252.67 55.4229 1251.56 55.17C1252.37 54.8263 1253.07 54.2807 1253.58 53.59C1254.07 52.8751 1254.31 52.0349 1254.28 51.1833C1254.3 50.4098 1254.15 49.6407 1253.82 48.9333C1253.53 48.3446 1253.08 47.8406 1252.52 47.4733C1251.91 47.0868 1251.23 46.8183 1250.52 46.6833C1249.66 46.5165 1248.79 46.436 1247.92 46.4433H1238.54ZM1242.91 54.18V49.71H1247.02C1247.4 49.7084 1247.77 49.7397 1248.15 49.8033C1248.49 49.8574 1248.81 49.9703 1249.11 50.1367C1249.39 50.2972 1249.62 50.5274 1249.78 50.8033C1249.96 51.142 1250.05 51.5198 1250.03 51.9C1250.03 52.7044 1249.78 53.2855 1249.28 53.6433C1248.71 54.0188 1248.04 54.2062 1247.35 54.1767L1242.91 54.18ZM1242.91 62.2933V57.0433H1247.69C1248.5 57.0028 1249.31 57.2219 1249.98 57.6667C1250.55 58.0867 1250.84 58.7867 1250.84 59.7667C1250.86 60.1918 1250.77 60.6147 1250.58 61C1250.42 61.3093 1250.17 61.573 1249.87 61.7667C1249.55 61.9607 1249.2 62.0963 1248.82 62.1667C1248.42 62.2463 1248.01 62.2866 1247.6 62.2867L1242.91 62.2933ZM1257.09 46.4433V65.56H1272.22V62.0267H1261.48V57.3333H1271.14V54.0667H1261.48V49.9767H1272V46.4433H1257.09ZM1281.62 46.4433L1274.09 65.56H1278.5L1280.05 61.3033H1287.5L1289.01 65.56H1293.56L1286.12 46.4433H1281.62ZM1281.2 58.17L1283.8 51.17H1283.87L1286.38 58.17H1281.2ZM1298.17 60.86C1297.92 60.3505 1297.8 59.79 1297.83 59.2267H1293.57C1293.53 60.2821 1293.76 61.3314 1294.24 62.28C1294.69 63.1154 1295.33 63.839 1296.12 64.3933C1296.95 64.961 1297.88 65.3749 1298.86 65.6133C1299.9 65.8734 1300.98 66.0033 1302.06 66C1303.27 66.0196 1304.48 65.8669 1305.64 65.5467C1306.58 65.2872 1307.47 64.8548 1308.24 64.2733C1308.92 63.7557 1309.46 63.0908 1309.81 62.3333C1310.17 61.5672 1310.35 60.7361 1310.35 59.8967C1310.39 58.9694 1310.14 58.0514 1309.63 57.26C1309.19 56.607 1308.62 56.0468 1307.94 55.6133C1307.34 55.223 1306.68 54.9208 1305.98 54.7167C1305.31 54.53 1304.8 54.4 1304.43 54.3267C1303.18 54.0267 1302.17 53.7733 1301.4 53.58C1300.78 53.4371 1300.17 53.2431 1299.59 53C1299.23 52.8633 1298.93 52.6319 1298.71 52.3333C1298.55 52.0549 1298.47 51.7404 1298.48 51.4233C1298.47 51.0706 1298.57 50.7226 1298.76 50.4233C1298.95 50.1572 1299.18 49.9302 1299.46 49.7567C1299.75 49.5748 1300.08 49.447 1300.43 49.38C1300.77 49.3109 1301.12 49.2752 1301.47 49.2733C1301.97 49.2708 1302.47 49.3154 1302.96 49.4067C1303.39 49.4875 1303.8 49.641 1304.18 49.86C1304.55 50.0745 1304.86 50.3777 1305.07 50.74C1305.3 51.18 1305.43 51.6635 1305.45 52.1567H1309.69C1309.71 51.1766 1309.48 50.2059 1309.02 49.3333C1308.59 48.5699 1307.99 47.9141 1307.25 47.42C1306.47 46.9069 1305.61 46.5383 1304.69 46.3333C1303.71 46.1078 1302.7 45.9959 1301.69 46C1300.79 45.9977 1299.89 46.1098 1299.02 46.3333C1298.15 46.5517 1297.34 46.9151 1296.61 47.4067C1295.91 47.8819 1295.33 48.4985 1294.9 49.2133C1294.44 49.9939 1294.22 50.8768 1294.24 51.77C1294.22 52.5447 1294.39 53.313 1294.76 54.0067C1295.09 54.6065 1295.55 55.1315 1296.11 55.5467C1296.69 55.966 1297.33 56.3028 1298.01 56.5467C1298.72 56.8104 1299.45 57.033 1300.19 57.2133C1300.91 57.4111 1301.63 57.5889 1302.33 57.7467C1302.98 57.8987 1303.62 58.0947 1304.23 58.3333C1304.74 58.513 1305.19 58.786 1305.59 59.1367C1305.76 59.2973 1305.89 59.4905 1305.98 59.7039C1306.07 59.9173 1306.12 60.1464 1306.11 60.3767C1306.13 60.8061 1305.99 61.2279 1305.72 61.57C1305.45 61.8865 1305.11 62.1387 1304.72 62.3067C1304.33 62.486 1303.91 62.6074 1303.48 62.6667C1303.06 62.7272 1302.65 62.7584 1302.23 62.76C1301.66 62.7633 1301.1 62.6961 1300.55 62.56C1300.04 62.4426 1299.57 62.2345 1299.14 61.9467C1298.73 61.6623 1298.4 61.2899 1298.18 60.86M1317.51 49.9767V65.56H1321.89V49.9767H1327.86V46.4433H1311.53V49.9767H1317.51Z" fill="black"/>
</g>
<defs>
<clipPath id="clip0_1_544">
<rect width="118" height="24" fill="white" transform="translate(112 44)"/>
</clipPath>
<clipPath id="clip1_1_544">
<rect width="97" height="32" fill="white" transform="translate(364 40)"/>
</clipPath>
<clipPath id="clip2_1_544">
<rect width="164" height="20" fill="white" transform="translate(1164 46)"/>
</clipPath>
</defs>
</svg>
